<svg width="24" height="24" viewBox="0 0 24 24" fill="none" xmlns="http://www.w3.org/2000/svg">
<g clip-path="url(#clip0_5397_11499)">
<path d="M12 24.0018C18.6274 24.0018 24 18.6292 24 12.0018C24 5.37441 18.6274 0.00183105 12 0.00183105C5.37258 0.00183105 0 5.37441 0 12.0018C0 18.6292 5.37258 24.0018 12 24.0018Z" fill="white"/>
<path d="M16.6712 15.4713L17.2028 12.0018H13.875V9.75066C13.875 8.80228 14.3391 7.87583 15.8308 7.87583H17.3445V4.92268C17.3445 4.92268 15.9709 4.68811 14.658 4.68811C11.9175 4.68811 10.1253 6.34863 10.1253 9.35747V12.0018H7.07764V15.4713H10.1253V23.8566C10.7362 23.9528 11.3623 24.0017 12.0002 24.0017C12.638 24.0017 13.2641 23.9511 13.875 23.8566V15.4713H16.6712Z" fill="#1977F3"/>
</g>
<defs>
<clipPath id="clip0_5397_11499">
<rect width="24" height="24" fill="white"/>
</clipPath>
</defs>
</svg>
