<svg width="22" height="22" viewBox="0 0 22 22" fill="none" xmlns="http://www.w3.org/2000/svg">
<path fill-rule="evenodd" clip-rule="evenodd" d="M21.56 11.2501C21.56 10.4701 21.49 9.72012 21.36 9.00012H11V13.2551H16.92C16.665 14.6301 15.89 15.7951 14.725 16.5751V19.3351H18.28C20.36 17.4201 21.56 14.6001 21.56 11.2501Z" fill="#4285F4"/>
<path fill-rule="evenodd" clip-rule="evenodd" d="M10.9999 21.9998C13.9699 21.9998 16.4599 21.0148 18.2799 19.3348L14.7249 16.5748C13.7399 17.2348 12.4799 17.6248 10.9999 17.6248C8.13492 17.6248 5.70992 15.6898 4.84492 13.0898H1.16992V15.9398C2.97992 19.5348 6.69992 21.9998 10.9999 21.9998Z" fill="#34A853"/>
<path fill-rule="evenodd" clip-rule="evenodd" d="M4.845 13.0899C4.625 12.4299 4.5 11.7249 4.5 10.9999C4.5 10.2749 4.625 9.56994 4.845 8.90994V6.05994H1.17C0.425 7.54494 0 9.22494 0 10.9999C0 12.7749 0.425 14.4549 1.17 15.9399L4.845 13.0899Z" fill="#FBBC05"/>
<path fill-rule="evenodd" clip-rule="evenodd" d="M10.9999 4.375C12.6149 4.375 14.0649 4.93 15.2049 6.02L18.3599 2.865C16.4549 1.09 13.9649 0 10.9999 0C6.69992 0 2.97992 2.465 1.16992 6.06L4.84492 8.91C5.70992 6.31 8.13492 4.375 10.9999 4.375Z" fill="#EA4335"/>
</svg>
